<?xml version="1.0" encoding="UTF-8"?>
<svg id="Layer_1" data-name="Layer 1" xmlns="http://www.w3.org/2000/svg" viewBox="0 0 530.69 528.9">
  <defs>
    <style>
      .cls-1 {
        fill: #142135;
      }

      .cls-2 {
        opacity: .05;
      }
    </style>
  </defs>
  <g class="cls-2">
    <path class="cls-1" d="M84.97,55.49c25.06,0,157.19,0,157.19,0,12.02,0,12.02-.08,12.02,12.18,0,3.37,0,34.76,0,78.5-10.92-23.88-35.01-40.48-62.99-40.48-38.23,0-69.22,30.99-69.22,69.22,0,38.23,30.99,69.22,69.22,69.22,27.97,0,52.07-16.6,62.99-40.48,0,34.78,0,72.37,0,107.84-13.49-21.7-38.12-36.22-66.26-36.22-42.65,0-77.22,33.34-77.22,74.47,0,.35,0,52.25,0,84.99,0,20.98,10.08,33.24,20.74,38.24h-40.22c-33.15,0-33.15-.63-33.15-35.33V82.14q0-26.65,26.89-26.65Z"/>
    <path class="cls-1" d="M0,484.15c0,26.63,14.03,44.32,47.18,44.32l433.31.43c30.91,0,50.19-9.33,50.19-44.8l-5.85-437.54C524.49,20.74,503.47,0,477.65,0H52.51C26.67,0,5.64,20.78,5.32,46.61L0,484.15ZM276.1,120.8l.18-49.49c0-5.71,0-8.08,7.01-8.08h157.36q23.59,0,23.59,25.93v351.4q0,24.49-23.18,24.49h-21.27c.24-5.23.24-11.71.24-19.74,0-32.75,0-95.21,0-95.56,0-41.13-34.59-74.47-77.25-74.47-28.44,0-53.28,14.82-66.69,36.89v-1.55s0-108.51,0-108.51c10.57,24.71,35.1,42.03,63.67,42.03,38.23,0,69.22-30.99,69.22-69.22,0-38.23-30.99-69.22-69.22-69.22-28.58,0-53.11,17.32-63.67,42.03v-26.92ZM44.49,81.18q0-38.93,39.3-38.9h363.48c38.79,0,39.3-.03,39.3,38.85,0,0,0,326.6,0,365.16q0,39.91-39.3,39.91h-41.1c7.29-1.06,10.75-3.75,12.38-10.57h22.09q34.65,0,34.65-35.8V88.43q0-35.8-34.65-35.8c-32.84,0-158.02,0-158.02,0-17.32,0-17.4,0-17.4,17.27,0,0,0,377.67,0,382.85h.31c0,24.81-.17,31.59,9.03,33.44H83.8q-39.31,0-39.3-39.86c0-39.86,0-365.16,0-365.16Z"/>
  </g>
</svg>